<svg xmlns="http://www.w3.org/2000/svg" fill="none" viewBox="0 0 179 32" height="32" width="179">
<path fill="#222822" d="M1.93751 21.2698H3.3869V15.8041H5.32013V14.4939H0V15.8041H1.93751V21.2698Z"></path>
<path fill="#222822" d="M8.80523 18.5102H11.7061V21.2698H13.1577V14.4939H11.7061V17.2064H8.80523V14.4939H7.35156V21.2698H8.80523V18.5102Z"></path>
<path fill="#222822" d="M20.9479 19.966H17.3191V18.4631H20.0723V17.1593H17.3191V15.8041H20.8473V14.4939H15.8633V21.2698H20.9479V19.966Z"></path>
<path fill="#222822" d="M154.17 19.0926C154.119 19.1611 154.037 19.2446 153.924 19.3388C153.81 19.433 153.68 19.5272 153.532 19.6192C153.384 19.7113 153.198 19.7926 152.971 19.8611C152.746 19.9297 152.511 19.9618 152.265 19.9618C151.631 19.9618 151.102 19.7498 150.676 19.3238C150.25 18.8977 150.038 18.3689 150.038 17.7352C150.038 17.1015 150.25 16.5727 150.676 16.1467C151.102 15.7206 151.631 15.5087 152.265 15.5087C152.494 15.5087 152.721 15.5451 152.941 15.6157C153.162 15.6864 153.339 15.7635 153.474 15.847C153.609 15.9305 153.736 16.0268 153.849 16.1381C153.965 16.2473 154.037 16.3265 154.072 16.3715C154.104 16.4164 154.132 16.4528 154.149 16.4785L155.069 15.5579L154.96 15.4166C154.892 15.3246 154.776 15.2133 154.618 15.0805C154.459 14.9478 154.275 14.815 154.07 14.6845C153.864 14.5517 153.599 14.4404 153.277 14.3462C152.956 14.2541 152.618 14.207 152.26 14.207C151.226 14.207 150.355 14.5517 149.644 15.2411C148.934 15.9305 148.578 16.7633 148.578 17.7352C148.578 18.7072 148.934 19.54 149.644 20.2315C150.355 20.923 151.226 21.2677 152.26 21.2677C152.614 21.2677 152.954 21.2185 153.284 21.1221C153.614 21.0237 153.879 20.9166 154.082 20.7989C154.286 20.6811 154.476 20.5441 154.654 20.3878C154.832 20.2315 154.947 20.1223 154.999 20.0624C155.05 20.0003 155.089 19.9511 155.114 19.9125L154.241 18.9919L154.166 19.0904L154.17 19.0926Z"></path>
<path fill="#222822" d="M159.186 14.3484H157.73V21.1243H162.327V19.8184H159.186V14.3484Z"></path>
<path fill="#222822" d="M168.906 18.3647C168.906 18.8186 168.76 19.1975 168.467 19.5037C168.173 19.8098 167.82 19.9618 167.409 19.9618C166.998 19.9618 166.643 19.8077 166.349 19.5015C166.054 19.1954 165.908 18.8164 165.908 18.3647V14.3484H164.459V18.3647C164.459 19.189 164.739 19.8805 165.3 20.4371C165.861 20.9937 166.563 21.2721 167.409 21.2721C168.255 21.2721 168.959 20.9937 169.518 20.4371C170.079 19.8805 170.359 19.1911 170.359 18.3647V14.3484H168.908V18.3647H168.906Z"></path>
<path fill="#222822" d="M178.486 18.0757C178.387 17.9665 178.274 17.8637 178.146 17.7717C178.017 17.6796 177.927 17.6197 177.878 17.5961C177.829 17.5726 177.788 17.5555 177.758 17.5426L177.839 17.4955C177.891 17.4634 177.953 17.4099 178.03 17.3328C178.107 17.2557 178.186 17.1637 178.263 17.0566C178.343 16.9496 178.407 16.8147 178.458 16.652C178.51 16.4893 178.533 16.318 178.533 16.1403C178.533 15.665 178.332 15.2476 177.931 14.8879C177.529 14.5282 177.022 14.3484 176.407 14.3484H173.502V21.1243H176.574C177.244 21.1243 177.797 20.9295 178.227 20.5377C178.659 20.1481 178.873 19.6814 178.873 19.1397C178.873 18.9213 178.833 18.718 178.754 18.5274C178.674 18.3369 178.584 18.187 178.486 18.0757ZM174.956 15.558H176.307C176.546 15.558 176.735 15.6244 176.874 15.7571C177.013 15.8898 177.082 16.0654 177.082 16.2859C177.082 16.5064 177.013 16.682 176.874 16.8147C176.735 16.9474 176.546 17.0138 176.307 17.0138H174.956V15.558ZM177.161 19.6642C176.985 19.8312 176.767 19.9147 176.501 19.9147H174.956V18.172H176.501C176.767 18.172 176.985 18.2555 177.161 18.4247C177.336 18.5938 177.422 18.7993 177.422 19.0455C177.422 19.2917 177.334 19.4972 177.161 19.6642Z"></path>
<path fill="#222822" d="M82.0639 28.4738C82.0403 28.2041 81.9525 28.0799 81.413 28.2255C80.987 28.3411 80.6187 28.0307 80.3447 27.5297C80.075 27.0394 79.8823 26.4357 79.863 25.9411C79.8245 24.9713 79.8737 24.0122 79.9936 23.098C80.1263 22.0939 80.3169 21.1048 80.5995 20.1843C80.8136 19.4842 80.972 19.2958 80.2976 18.5251C80.2612 18.4844 80.2698 18.4694 80.0899 18.3195C79.9251 18.1825 79.9957 18.0562 80.1413 17.9684C80.7986 17.5702 81.1411 17.0007 81.4987 16.3306C81.7898 15.7826 81.6571 15.1382 81.1304 14.5173C80.1734 13.3869 79.0259 12.8453 77.8484 12.5113C76.5082 12.1323 75.4421 12.5391 74.4894 13.1386C72.6546 14.2947 71.4386 16.1037 70.5051 18.1654C69.5396 20.2999 68.9658 22.6634 69.0836 25.3759C69.1136 26.091 69.2013 26.8018 69.576 27.5147C70.1069 28.5273 70.9697 29.0883 71.8453 29.5486C72.6824 29.9896 73.4082 30.0088 73.9927 29.4265C75.1124 28.3111 75.851 26.8681 76.5746 25.4016C76.8187 24.9071 77.0199 24.3804 77.2875 23.7596C77.3432 24.3954 77.371 24.89 77.4352 25.3888C77.493 25.8384 77.5401 26.2965 77.6793 26.7461C77.9812 27.7181 78.6299 28.4738 79.4348 29.0412C79.8951 29.3666 80.3961 29.5186 80.8328 29.5571C81.2953 29.5978 81.61 29.4651 81.8091 29.3923C82.0917 29.2874 82.0874 28.7414 82.0639 28.4717V28.4738ZM79.5397 17.5959C79.5354 17.7201 79.4177 17.7822 79.2935 17.7265C79.1501 17.6601 79.0174 17.5981 78.9339 17.5724C78.5849 17.4675 78.3515 17.5103 78.2231 17.8764C77.7264 19.2979 77.2468 20.7345 76.6559 22.0875C75.8231 23.9908 74.8662 25.802 73.5773 27.3156C73.3654 27.5639 73.0999 27.7673 72.8216 27.9343C72.4341 28.1677 72.0958 27.9707 72.0102 27.4162C71.9096 26.7568 71.8646 26.0889 71.9032 25.4659C72.0337 23.3421 72.6139 21.4602 73.2434 19.6062C73.6373 18.4459 74.1618 17.3904 74.8833 16.5083C75.7482 15.4529 76.6731 14.4595 78.0111 14.0099C78.0368 14.0014 78.0561 13.9821 78.0818 13.9799C78.9381 13.8643 79.5376 14.042 79.529 15.2816C79.5247 16.0309 79.5611 16.8188 79.5376 17.5959H79.5397Z"></path>
<path fill="#222822" d="M98.1719 28.3091C98.0734 27.9858 97.8957 27.7396 97.5874 27.8595C97.4975 27.8959 97.2213 28.0094 97.1271 28.0458C96.3564 28.3455 95.9454 28.217 95.6735 27.1702C95.4037 26.1275 95.5343 25.2155 95.6028 24.2885C95.6906 23.0832 95.9539 21.9421 96.1145 20.7689C96.2965 19.4522 96.5662 18.1741 96.7824 16.8703C96.9516 15.8534 96.487 14.6844 95.6392 14.1192C94.6116 13.4342 93.1536 13.3978 92.4429 14.0636C91.0684 15.3503 90.1435 17.0523 89.2615 18.78C88.6363 20.0046 87.6044 22.4152 87.0349 23.7661C86.9836 23.8903 86.778 23.7854 86.8016 23.6462C87.0456 22.0877 87.476 19.3366 87.5702 18.5937C87.6943 17.6089 87.8014 16.6134 87.8742 15.605C87.9191 14.9991 87.6772 14.586 87.1077 14.2434C86.823 14.0721 86.5104 13.9394 86.2193 13.8752C85.6626 13.7531 85.5492 13.9394 85.5385 14.5988C85.532 15.0441 85.5128 15.4894 85.4678 15.924C85.3907 16.7012 85.3051 17.4762 85.1831 18.234C85.0525 19.0369 83.8193 26.9347 83.7851 27.2815C83.7444 27.684 83.7979 28.0843 84.149 28.4889C84.7849 29.2254 86.4569 29.5316 86.93 28.9771C86.9686 28.93 86.9878 28.8593 87.0093 28.7972C87.2533 28.0501 87.4631 27.2772 87.7479 26.5579C88.3152 25.132 88.9018 23.719 89.5248 22.3339C90.0129 21.2484 90.516 20.1673 91.1026 19.1632C91.7085 18.127 92.4043 17.1679 93.1001 16.213C93.3013 15.9369 93.5797 15.6757 94.0935 15.8576C94.102 16.0268 94.1342 16.1873 94.1106 16.3222C93.9115 17.5254 93.7295 18.735 93.4897 19.9189C93.1515 21.5974 92.8646 23.2887 92.9053 25.1342C92.9353 26.5043 93.3549 27.9687 94.648 28.9578C95.575 29.6686 96.29 29.7863 97.1507 29.6921C97.5532 29.6472 98.037 29.3945 98.1483 29.3196C98.4823 29.0927 98.2682 28.6324 98.1698 28.3112L98.1719 28.3091Z"></path>
<path fill="#222822" d="M124.801 26.53C124.801 26.53 124.793 26.5214 124.788 26.5171C124.568 26.2816 124.247 26.2453 124.09 26.4444C123.988 26.575 123.883 26.7034 123.774 26.8276C123.033 27.6775 122.172 28.3391 120.892 28.3904C119.714 28.4375 118.646 27.2536 118.342 26.166C118.149 25.4788 118.044 24.7787 117.98 24.1001C117.933 23.597 118.004 23.1324 118.535 23.0382C118.775 22.9954 118.967 22.8241 119.164 22.6849C120.292 21.8907 121.427 21.1028 122.538 20.2871C123.442 19.6235 124.202 18.7928 124.778 17.7737C125.103 17.1978 125.306 16.0867 124.887 15.286C124.159 13.9008 123.033 13.0274 121.808 12.5585C120.434 12.0318 119.051 12.5478 118.152 13.5133C117.312 14.4147 116.629 15.4487 116.182 16.6754C115.79 17.748 115.537 18.917 115.255 20.0602C115.058 20.8545 115.073 21.7451 114.668 22.4473C113.801 23.9524 113.054 25.5602 112.211 27.0866C111.986 27.4913 111.624 27.7995 111.264 28.0672C110.868 28.3647 110.408 28.0864 110.241 27.4698C110.078 26.8661 109.875 26.2367 109.858 25.6651C109.808 24.053 109.798 22.4494 109.864 20.8737C109.918 19.6106 110.074 18.3796 110.239 17.1593C110.444 15.6328 110.684 14.1192 110.947 12.6206C111.219 11.0727 111.508 9.53126 111.838 8.01337C112.191 6.39271 112.604 4.8063 112.979 3.19849C113.018 3.03364 113.035 2.77031 112.941 2.63971C112.84 2.50056 112.585 2.4085 112.416 2.39137C112.074 2.35926 111.729 2.35712 111.41 2.40636C110.742 2.51126 110.125 2.72535 109.952 3.48751C109.524 5.36508 109.085 7.23622 108.714 9.1459C108.378 10.8907 108.128 12.6805 107.856 14.3461C107.006 13.9993 106.212 13.6118 105.417 13.3635C104.144 12.9653 103.08 13.1686 102.262 13.9544C100.926 15.2368 100.281 17.11 99.7762 18.9833C99.2195 21.0407 98.8984 23.0211 99.0954 25.3461C99.2174 26.7848 99.6135 28.0543 101.063 28.9492C102.189 29.645 103.441 29.7349 104.03 29.022C104.904 27.9665 105.552 26.727 106.143 25.4339C106.385 24.9029 106.616 24.3655 106.903 23.7147C106.959 24.0316 107.006 24.2028 107.015 24.3655C107.07 25.3075 107.241 26.2624 107.68 27.2065C108.284 28.4996 109.277 29.2275 110.44 29.5658C111.446 29.8591 112.42 29.8377 112.956 29.1012C113.666 28.1292 114.199 26.986 114.797 25.9049C115.002 25.5302 115.169 25.1234 115.362 24.7124C115.409 24.783 115.435 24.8087 115.443 24.8365C115.484 24.9821 115.516 25.1256 115.559 25.2711C115.846 26.2624 116.383 27.1294 117.141 27.8809C118.333 29.0627 119.629 29.6814 121.025 29.9169C122.354 30.1417 123.407 29.827 124.287 29.0584C124.574 28.8079 125.195 28.0907 125.435 27.7953C125.795 27.3542 125.294 27.0545 124.799 26.5257L124.801 26.53ZM118.575 19.9253C119.008 18.3796 119.575 16.9259 120.399 15.6692C120.688 15.2282 121.052 14.8407 121.453 14.5174C121.678 14.3354 122.089 14.237 122.384 14.6309C122.598 14.9156 122.752 15.3802 122.733 15.6885C122.673 16.5855 122.258 17.262 121.793 17.8701C121.247 18.5851 120.673 19.2745 120.059 19.9168C119.526 20.4734 118.922 20.9508 118.351 21.4625L118.209 21.3769C118.331 20.8909 118.443 20.4006 118.575 19.9232V19.9253ZM107.558 16.0203C107.301 17.3605 107.149 18.7607 106.783 20.0345C106.439 21.2356 105.906 22.3253 105.4 23.4236C105.011 24.2735 104.585 25.0999 104.092 25.862C103.668 26.5171 103.14 27.0802 102.626 27.6497C102.529 27.7567 102.215 27.7888 102.118 27.6946C101.947 27.5277 101.765 27.2065 101.767 27.0074C101.78 25.7828 101.782 24.5475 101.902 23.3636C102.097 21.4197 102.523 19.5892 103.144 17.8722C103.54 16.7761 103.927 15.6649 104.829 15.0055C105.034 14.8557 105.295 14.7829 105.531 14.6737C106.135 14.6801 106.685 14.997 107.231 15.3245C107.518 15.4958 107.616 15.7206 107.558 16.0182V16.0203Z"></path>
<path fill="#222822" d="M140.087 18.1033C140.034 17.9899 139.939 17.8935 139.828 17.8421C139.717 17.7907 139.601 17.7865 139.511 17.8336C139.22 17.9834 138.933 18.1269 138.638 18.2425C138.565 18.2703 138.494 18.2981 138.421 18.3281C138.008 18.493 137.58 18.6621 137.135 18.7113C136.689 18.7606 136.244 18.6407 135.88 18.3731C135.523 18.1097 135.257 17.7158 135.109 17.2341C134.91 16.5811 134.769 16.0759 134.653 15.5942C134.551 15.1639 134.486 14.7293 134.437 14.361C134.431 14.3075 134.424 14.2518 134.418 14.1983C134.377 13.7573 133.975 13.3398 133.538 13.2692C133.219 13.2178 132.874 13.16 132.534 13.0936C132.301 13.0487 132.228 13.1536 132.187 13.3377C131.986 14.2326 130.209 22.1667 129.582 24.8793C129.571 24.9242 129.535 24.9285 129.502 24.9178C129.472 24.9071 129.436 24.8771 129.436 24.8279C129.427 24.2456 129.389 23.2543 129.37 22.7234C129.363 22.5457 129.359 22.4258 129.359 22.398C129.355 22.1817 129.353 21.9655 129.35 21.7514C129.348 21.4581 129.346 21.1541 129.338 20.8522C129.333 20.7259 129.325 20.5225 129.314 20.2849C129.29 19.7625 129.263 19.1095 129.267 18.7905C129.271 18.5251 129.153 18.3046 128.944 18.1847C128.834 18.1226 128.712 18.0155 128.586 17.9021C128.441 17.7736 128.291 17.6409 128.137 17.5553C127.978 17.4675 127.809 17.4546 127.676 17.5231C127.544 17.5916 127.469 17.7287 127.475 17.8978C127.492 18.4673 127.52 19.4885 127.548 20.4819C127.582 21.7814 127.616 23.0081 127.625 23.1772C127.642 23.4706 127.655 23.766 127.668 24.0593C127.687 24.5025 127.706 24.9585 127.738 25.4102C127.781 26.0289 127.837 26.6583 127.888 27.2664C127.914 27.5682 127.942 27.8722 127.965 28.1741L127.982 28.3753C128.01 28.72 128.278 29.1825 128.582 29.403C128.813 29.5721 129.051 29.6856 129.31 29.7498C129.487 29.7926 129.672 29.814 129.871 29.8119C129.892 29.8119 129.911 29.8119 129.931 29.8119C130.083 29.8119 130.192 29.814 130.241 29.5978C130.359 29.0797 130.489 28.5595 130.618 28.0542C130.667 27.8615 130.714 27.671 130.763 27.4783L132.795 19.3236C132.883 18.9747 133.112 18.0562 133.262 17.4632C133.279 17.3925 133.341 17.3754 133.39 17.384C133.444 17.3925 133.508 17.4311 133.538 17.5124L133.654 17.825C133.729 18.0284 133.78 18.1633 133.825 18.2917C134.063 18.9447 134.253 19.2273 134.75 19.6662C135.529 20.3555 136.454 20.6167 137.578 20.4647C138.233 20.3748 139.413 19.9424 140.145 19.6169C140.74 19.3515 140.427 18.8334 140.087 18.1033Z"></path>
<path fill="#222822" d="M92.0804 2.09592C84.8527 -2.75107 75.3814 1.95034 69.8578 4.77204C67.8946 5.72688 65.5653 7.00072 63.0947 7.64085C61.6261 5.36935 59.8106 3.4297 57.8046 2.71036C56.6892 2.31001 55.4517 2.43204 54.7174 3.12355C53.5313 4.13406 53.4778 6.3349 54.7902 7.90632C55.957 9.36213 57.8153 10.0215 59.2732 10.1928C60.3223 10.3212 61.3306 10.3148 62.3026 10.2099C63.1782 11.9034 63.8569 13.6825 64.2722 15.3652C65.2785 19.2188 64.7026 22.8926 63.1247 25.8513C63.1226 25.8492 63.1183 25.847 63.1161 25.8428C63.0862 25.9006 63.0562 25.9605 63.0241 26.0183C61.4976 28.8229 59.7378 29.3431 58.5496 29.4887C57.3892 29.6322 56.4558 29.3688 55.6102 28.6645C54.574 27.7995 53.9338 26.6049 53.5956 24.9072C53.3173 23.5049 53.1995 22.0855 53.2445 20.6875C53.2552 20.3685 53.2595 20.0495 53.2616 19.7305C53.2702 19.054 53.2787 18.356 53.3515 17.6817C53.4885 16.4164 53.6769 15.1426 53.861 13.9115L53.8825 13.766C53.9767 13.1344 53.5656 12.3936 52.9276 12.0468L52.4459 11.7835C51.9556 11.5159 51.4375 11.6165 51.217 12.0254L45.5886 22.4302C45.5137 22.5672 45.3488 22.595 45.1883 22.4965C45.0277 22.4002 44.9442 22.2246 44.9849 22.0684C45.64 19.5314 47.0059 14.2541 47.3656 12.1453C47.5732 10.9293 47.7338 9.61689 47.5176 8.24886C47.1322 5.81894 45.4901 3.90284 43.2636 2.91588C41.7585 2.25007 40.0801 2.00814 38.4402 2.12803C34.3703 2.42562 30.3625 4.99684 30.1763 9.88237C30.0821 12.3744 31.5036 14.8557 33.6274 16.2151C35.3209 17.2984 37.6009 17.4783 39.38 16.5919C39.5491 16.5084 39.6177 16.3029 39.5342 16.1359L39.0803 15.2325C39.0161 15.104 38.8769 15.0334 38.7335 15.0505C36.4256 15.3288 34.0577 14.511 32.9937 12.2695C32.1438 10.4818 32.2701 8.18249 33.3598 6.51902C34.4602 4.83841 36.3935 3.84718 38.3395 3.53675C39.0674 3.42114 39.8103 3.39545 40.5447 3.47252C40.7909 3.49821 41.0371 3.53675 41.279 3.59027C43.0966 3.97991 44.5417 5.21735 44.9699 7.05852C45.7321 10.3427 44.4989 13.8494 43.7667 17.0244C43.1459 19.7198 42.5143 22.4109 41.8742 25.102C41.7885 25.4617 41.7029 25.8214 41.6173 26.181C41.3967 27.1037 41.1291 28.0286 40.8679 28.9214L40.7802 29.2275C40.6367 29.7221 40.9322 30.3429 41.4545 30.6427L42.0925 31.0087C42.5742 31.2871 43.1095 31.195 43.3364 30.7968L50.3093 18.6022C50.4292 18.3924 50.6732 18.3924 50.8595 18.4866C51.0822 18.598 51.2277 18.827 51.2235 19.054C51.1849 20.4798 51.1721 21.5074 51.1871 22.1112C51.2256 23.6762 51.3562 25.5238 52.0242 27.3671C52.7842 29.4652 54.1736 30.8996 56.1497 31.6317C57.158 32.0064 58.1107 32.0942 58.9821 31.8972C59.1298 31.863 59.2775 31.833 59.4274 31.8009C60.0183 31.6746 60.6306 31.5461 61.153 31.2828C61.7738 30.9702 62.3518 30.5827 62.8892 30.1246C62.8914 30.1267 62.8978 30.1331 62.8978 30.1331C63.2425 29.8612 63.5251 29.5679 63.8184 29.2532C66.8584 25.8856 67.9118 20.5976 66.5266 15.316C66.1241 13.7767 65.3748 11.7899 64.3622 9.83741C66.8285 9.22297 69.0871 8.07759 71.2858 7.0521C76.4604 4.55581 87.0193 -0.993394 93.2065 5.54705C94.3369 6.74595 95.236 8.17607 95.8398 9.65543C95.9126 9.83527 96.0903 9.95302 96.2851 9.94231L97.0922 9.89735C97.3491 9.88237 97.5247 9.6276 97.4454 9.38354C96.542 6.56397 94.6302 3.82577 92.0761 2.09806L92.0804 2.09592ZM56.8669 7.40535C55.5309 6.81446 55.0814 5.28372 55.9441 4.50657C56.9311 3.67376 58.434 4.75706 59.4081 5.87461C59.9797 6.534 60.5171 7.24906 61.0138 8.00266C59.6415 8.11827 58.2477 7.97054 56.8669 7.40535Z"></path>
</svg>
